<?xml version="1.0" encoding="UTF-8"?>
<svg xmlns="http://www.w3.org/2000/svg" xmlns:xlink="http://www.w3.org/1999/xlink" viewBox="0 0 32 32" width="32px" height="32px">
<g id="surface8262559">
<path style=" stroke:none;fill-rule:nonzero;fill:rgb(20.392157%,59.607846%,85.882354%);fill-opacity:1;" d="M 14 2 C 12.34375 2 11 3.34375 11 5 L 11 6 L 4 6 C 3.449219 6 3 6.449219 3 7 C 3 7.550781 3.449219 8 4 8 L 5.085938 8 L 7.003906 29.089844 C 7.050781 29.605469 7.484375 30 8 30 L 24 30 C 24.515625 30 24.949219 29.605469 24.996094 29.089844 L 26.914062 8 L 28 8 C 28.550781 8 29 7.550781 29 7 C 29 6.449219 28.550781 6 28 6 L 21 6 L 21 5 C 21 3.34375 19.65625 2 18 2 Z M 14 4 L 18 4 C 18.550781 4 19 4.449219 19 5 L 19 6 L 13 6 L 13 5 C 13 4.449219 13.449219 4 14 4 Z M 7.09375 8 L 24.90625 8 L 23.085938 28 L 8.914062 28 Z M 16.027344 10 C 15.757812 9.992188 15.496094 10.09375 15.304688 10.28125 C 15.109375 10.472656 15 10.730469 15 11 L 15 25 C 15 25.550781 15.449219 26 16 26 C 16.550781 26 17 25.550781 17 25 L 17 11 C 17 10.457031 16.570312 10.015625 16.027344 10 Z M 10.582031 12 C 10.296875 11.988281 10.019531 12.101562 9.820312 12.3125 C 9.621094 12.519531 9.523438 12.804688 9.546875 13.089844 L 10.457031 23.089844 C 10.503906 23.605469 10.9375 24 11.453125 24 C 11.484375 24 11.515625 24 11.542969 23.996094 C 12.09375 23.945312 12.5 23.460938 12.449219 22.910156 L 11.539062 12.910156 C 11.496094 12.410156 11.085938 12.019531 10.582031 12 Z M 21.472656 12 C 20.949219 11.988281 20.507812 12.386719 20.457031 12.910156 L 19.546875 22.910156 C 19.5 23.460938 19.90625 23.945312 20.453125 23.996094 C 20.484375 24 20.515625 24 20.546875 24 C 21.0625 24 21.496094 23.605469 21.542969 23.089844 L 22.453125 13.089844 C 22.476562 12.8125 22.386719 12.539062 22.199219 12.332031 C 22.015625 12.125 21.753906 12.003906 21.476562 12 Z M 21.472656 12 "/>
</g>
</svg>
