<?xml version="1.0" encoding="UTF-8"?>
<svg xmlns="http://www.w3.org/2000/svg" xmlns:xlink="http://www.w3.org/1999/xlink" viewBox="0 0 32 32" width="32px" height="32px">
<g id="surface8260906">
<path style=" stroke:none;fill-rule:nonzero;fill:white;fill-opacity:1;" d="M 0 28.800781 L 32 28.800781 L 32 30.933594 L 0 30.933594 Z M 0 28.800781 "/>
<path style=" stroke:none;fill-rule:nonzero;fill:rgb(20.392157%,59.607846%,85.882354%);fill-opacity:1;" d="M 30.265625 10.152344 C 31.152344 9.261719 31.152344 7.8125 30.261719 6.917969 L 25.082031 1.738281 C 24.21875 0.875 22.710938 0.871094 21.847656 1.738281 L 7.546875 16.039062 L 5.335938 26.667969 L 15.960938 24.457031 Z M 10.035156 16.566406 L 19.96875 6.628906 L 25.371094 12.03125 L 15.433594 21.96875 Z M 23.355469 3.246094 C 23.429688 3.171875 23.496094 3.171875 23.574219 3.246094 L 28.753906 8.425781 C 28.816406 8.488281 28.816406 8.585938 28.753906 8.644531 L 26.878906 10.523438 L 21.476562 5.121094 Z M 9.167969 18.71875 L 13.28125 22.835938 L 8.085938 23.914062 Z M 9.167969 18.71875 "/>
</g>
</svg>
